<svg xmlns="http://www.w3.org/2000/svg" viewBox="-9808.999 851.303 328.999 70.807"><defs><style>.a{fill:#005596;}.b{fill:#54b948;}</style></defs><g transform="translate(-9809.002 851.303)"><g transform="translate(0.002)"><path class="a" d="M29,44.046a14.3,14.3,0,0,1-2.369-3.2l-2.5,2.5c-3.969,3.969-5.7,1.793-9.667-2.177s-6.146-5.7-2.177-9.667L43.791,0H31.947L4.162,27.785c-7.875,7.875-3.521,11.4,4.353,19.27s11.4,12.228,19.334,4.353l4.8-4.8A14.441,14.441,0,0,1,29,44.046Z" transform="translate(-0.002)"/><path class="a" d="M85.767,31.816c-7.875-7.875-11.4-12.228-19.334-4.353l-3.521,3.521a14.3,14.3,0,0,1,3.2,2.369A14.685,14.685,0,0,1,68.738,37l1.472-1.472c3.969-3.969,5.7-1.793,9.667,2.177s6.146,5.7,2.177,9.667L50.3,79.127l.064.064H62.016L90.121,51.086C98.059,43.211,93.706,39.69,85.767,31.816Z" transform="translate(-18.099 -8.384)"/><path class="b" d="M56.2,42.7a7.136,7.136,0,0,0-6.978,8.579,6.993,6.993,0,0,0,1.921,3.649,7.317,7.317,0,0,0,4.225,2.049c.256,0,.512.064.832.064a7.185,7.185,0,0,0,5.058-2.113,7.141,7.141,0,0,0-3.713-12.036A4.55,4.55,0,0,0,56.2,42.7Z" transform="translate(-17.662 -15.363)"/></g><g transform="translate(107.103 1.793)"><path class="a" d="M251.6,4.8h6.466V50.255H251.6Z" transform="translate(-197.627 -3.52)"/><path class="a" d="M281.566,50.255H275.1V4.8l38.924,30.922V4.8h6.466V50.255L281.566,19.4Z" transform="translate(-206.082 -3.52)"/><g transform="translate(0.004 55.314)"><path class="a" d="M167.3,89.6h9.091v.96h-3.969v10.5h-1.088V90.56h-3.969V89.6Z" transform="translate(-167.3 -89.344)"/><path class="a" d="M195.7,89.6h7.875v.96h-6.786v4.161h6.4v.9h-6.4v4.545H203.7v.96h-8Z" transform="translate(-177.518 -89.344)"/><path class="a" d="M231.1,92.985a3.438,3.438,0,0,0-3.521-2.753c-3.009,0-4.289,2.561-4.289,5.058s1.28,5.058,4.289,5.058a3.689,3.689,0,0,0,3.649-3.649h1.088c-.32,2.817-2.113,4.609-4.738,4.609-3.585,0-5.378-2.817-5.378-5.954s1.793-5.954,5.378-5.954a4.391,4.391,0,0,1,4.609,3.713H231.1Z" transform="translate(-187.053 -89.272)"/><path class="a" d="M253.2,89.6h1.088v4.994h6.786V89.6h1.088v11.46h-1.088V95.49h-6.786v5.57H253.2Z" transform="translate(-198.206 -89.344)"/><path class="a" d="M283.3,89.6h1.216l6.658,9.667h.064V89.6h1.088v11.46h-1.216l-6.722-9.667h0v9.667H283.3Z" transform="translate(-209.036 -89.344)"/><path class="a" d="M317.878,89.2c3.585,0,5.378,2.817,5.378,5.954s-1.793,5.954-5.378,5.954-5.378-2.817-5.378-5.954C312.5,92.081,314.293,89.2,317.878,89.2Zm0,11.012c3.009,0,4.289-2.561,4.289-5.058s-1.28-5.058-4.289-5.058-4.289,2.561-4.289,5.058C313.588,97.715,314.869,100.212,317.878,100.212Z" transform="translate(-219.542 -89.2)"/><path class="a" d="M344.5,89.6h1.088v10.5h6.4v.96H344.5Z" transform="translate(-231.056 -89.344)"/><path class="a" d="M374.878,89.2c3.585,0,5.378,2.817,5.378,5.954s-1.793,5.954-5.378,5.954-5.378-2.817-5.378-5.954C369.5,92.081,371.293,89.2,374.878,89.2Zm0,11.012c3.009,0,4.289-2.561,4.289-5.058s-1.28-5.058-4.289-5.058-4.289,2.561-4.289,5.058C370.588,97.715,371.869,100.212,374.878,100.212Z" transform="translate(-240.05 -89.2)"/><path class="a" d="M411.007,100.916h-.768l-.128-2.113h-.064a4.07,4.07,0,0,1-3.969,2.3c-3.585,0-5.378-2.817-5.378-5.954s1.793-5.954,5.378-5.954a4.5,4.5,0,0,1,4.8,3.777h-1.088a3.523,3.523,0,0,0-3.713-2.881c-3.009,0-4.289,2.561-4.289,5.058s1.28,5.058,4.289,5.058a3.8,3.8,0,0,0,3.969-4.225h-3.905v-.96h4.866Z" transform="translate(-251.276 -89.2)"/><path class="a" d="M432.7,89.6h1.088v11.46H432.7Z" transform="translate(-262.789 -89.344)"/><path class="a" d="M450.7,89.6h7.875v.96h-6.786v4.161h6.4v.9h-6.4v4.545H458.7v.96h-8Z" transform="translate(-269.266 -89.344)"/><path class="a" d="M478.185,97.175c-.064,2.369,1.665,3.073,3.713,3.073,1.216,0,3.009-.64,3.009-2.3,0-1.28-1.28-1.793-2.369-2.049l-2.561-.64c-1.344-.32-2.561-.96-2.561-2.753,0-1.152.7-3.2,3.969-3.2,2.241,0,4.225,1.216,4.225,3.585h-1.088a2.846,2.846,0,0,0-3.137-2.625c-1.472,0-2.881.576-2.881,2.3,0,1.088.768,1.536,1.729,1.729l2.817.7c1.6.448,2.945,1.152,2.945,3.009,0,.768-.32,3.265-4.353,3.265-2.689,0-4.673-1.216-4.545-3.969h1.088Z" transform="translate(-278.761 -89.236)"/></g><path class="a" d="M212.752,4.8v6.466H177.925c-4.353,0-4.1,2.177-4.1,6.466,0,4.353-.256,6.466,4.1,6.466h26.633c8.643,0,8.195,4.353,8.195,13s.448,13-8.195,13H167.3V43.724h34.827c4.353,0,4.1-2.177,4.1-6.466,0-4.353.256-6.466-4.1-6.466H175.492c-8.643,0-8.195-4.353-8.195-13s-.448-13,8.195-13h37.26Z" transform="translate(-167.294 -3.52)"/><path class="a" d="M357.2,35.164V41.63h33.355a27.3,27.3,0,0,1-.128-3.265c0-1.088.064-2.177.128-3.265H357.2Z" transform="translate(-235.621 -14.421)"/><path class="a" d="M399.005,6.208c.512-.512.96-.96,1.472-1.408H357.2v6.466h37.708A30.187,30.187,0,0,1,399.005,6.208Z" transform="translate(-235.621 -3.52)"/><path class="a" d="M394.908,65.6H357.2v6.466h43.278a15.313,15.313,0,0,1-1.472-1.408A25.793,25.793,0,0,1,394.908,65.6Z" transform="translate(-235.621 -25.395)"/><path class="a" d="M456.968,37.883a18.126,18.126,0,0,1-2.241,2.177,18.7,18.7,0,0,1-12.42,4.545,17.311,17.311,0,0,1-12.484-5.314,17.322,17.322,0,0,1,0-24.968A17.2,17.2,0,0,1,442.308,9.01a18.8,18.8,0,0,1,12.42,4.417c.768.64,1.472,1.344,2.113,1.985h7.81a24.468,24.468,0,0,0-6.018-7.49C454.664,4.529,449.158,2.8,442.308,2.8A23.346,23.346,0,0,0,425.15,9.65a11.128,11.128,0,0,0-.832.96,23.074,23.074,0,0,0-5.826,13,26.35,26.35,0,0,0-.192,3.265,27.919,27.919,0,0,0,.192,3.265,22.655,22.655,0,0,0,5.826,13c.256.32.576.64.832.96a23.63,23.63,0,0,0,17.158,6.914c6.85,0,12.356-1.729,16.325-5.122a22.756,22.756,0,0,0,6.146-7.811h-7.81Z" transform="translate(-257.604 -2.8)"/><g transform="translate(212.168 1.408)"><path class="a" d="M508.431,9.866a4.866,4.866,0,1,1-9.731,0A4.784,4.784,0,0,1,503.566,5,4.863,4.863,0,0,1,508.431,9.866Zm-8.963,0a4.1,4.1,0,1,0,8.195,0,4.1,4.1,0,1,0-8.195,0Zm2.369,2.817V7.113h2.177c1.28,0,1.793.576,1.793,1.536a1.494,1.494,0,0,1-1.408,1.536l1.665,2.5h-.832l-1.6-2.5h-1.152v2.5h-.64m1.6-3.073c.832,0,1.665,0,1.665-.96,0-.768-.64-.96-1.344-.96h-1.28V9.609Z" transform="translate(-498.7 -5)"/></g></g></g></svg>